<svg version="1.1" xmlns="http://www.w3.org/2000/svg" xmlns:xlink="http://www.w3.org/1999/xlink" width="83.97579" height="140.67714" viewBox="0,0,83.97579,140.67714"><g transform="translate(-198.0121,-109.66143)"><g data-paper-data="{&quot;isPaintingLayer&quot;:true}" fill-rule="nonzero" stroke="none" stroke-linecap="butt" stroke-linejoin="miter" stroke-miterlimit="10" stroke-dasharray="" stroke-dashoffset="0" style="mix-blend-mode: normal"><g><path d="M255.18441,146.39887c0,18.44523 -5.9392,33.39804 -13.26558,33.39804c-7.32638,0 -13.26558,-14.95281 -13.26558,-33.39804c0,-18.44523 5.9392,-33.39804 13.26558,-33.39804c7.32638,0 13.26558,14.95281 13.26558,33.39804z" fill="#00ce56" stroke-width="0"/><path d="M269.23622,167.00543c0,18.44523 -5.93921,33.39804 -13.26558,33.39804c-7.32638,0 -13.26558,-14.95281 -13.26558,-33.39804c0,-18.44523 5.9392,-33.39804 13.26558,-33.39804c7.32638,0 13.26558,14.95281 13.26558,33.39804z" fill="#00ce56" stroke-width="0"/><path d="M245.83227,168.25986c0,18.44523 -5.9392,33.39804 -13.26558,33.39804c-7.32638,0 -13.26558,-14.95281 -13.26558,-33.39804c0,-18.44523 5.9392,-33.39804 13.26558,-33.39804c7.32638,0 13.26558,14.95281 13.26558,33.39804z" fill="#00ce56" stroke-width="0"/><path d="M273.75428,188.83814c-7.35519,16.91531 -18.76432,28.25957 -25.48302,25.33812c-6.71869,-2.92145 -6.20273,-19.00233 1.15245,-35.91764c7.35519,-16.91531 18.76433,-28.25958 25.48303,-25.33813c6.7187,2.92145 6.20272,19.00233 -1.15246,35.91764z" fill="#009d41" stroke-width="0"/><path d="M241.60176,180.38386c13.08845,12.99688 19.51384,27.74732 14.35153,32.946c-5.16231,5.19868 -19.95748,-1.12302 -33.04593,-14.1199c-13.08845,-12.99688 -19.51384,-27.74732 -14.35153,-32.946c5.16231,-5.19868 19.95749,1.12302 33.04593,14.1199z" fill="#009d41" stroke-width="0"/><path d="M213.35882,250.33857v-59.9292h66.17182v59.9292z" fill="#b19900" stroke-width="0"/><path d="M243.07074,240.89067l-23.07319,-47.61267l24.82709,-0.91187l30.87647,2.66577z" fill="#b00000" stroke-width="0"/><path d="M266.25748,211.52212c-0.44432,0.69924 -0.88196,1.40558 -1.55067,1.86654c-0.35601,0.24541 -1.64612,0.5835 -2.93183,0.89507c-0.23148,0.28097 -0.47947,0.54349 -0.73495,0.78111c-0.17342,0.67803 -0.62403,1.24509 -1.22396,1.57333l-2.14278,1.22445c-6.95629,3.94778 -12.81046,2.68948 -20.05577,0.53805c-1.63885,-0.48664 -3.54005,-0.0803 -5.05347,-0.87542c-0.04589,-0.02411 -0.09154,-0.04861 -0.13696,-0.07347l-0.01033,0.04133l-2.44632,-0.61158c-1.1133,-0.25265 -1.9444,-1.24829 -1.9444,-2.43804c0,-0.55379 0.18006,-1.06552 0.48483,-1.47984c-0.67651,-0.2815 -1.42123,-0.90126 -1.42123,-2.26573c0,-2.5 2.5,-2.5 2.5,-2.5c1.56973,0.00823 3.1514,-0.12092 4.69453,-0.41875c0.33935,-0.37771 0.79208,-0.6515 1.30462,-0.76781l2.44632,-0.61158c8.23747,-2.04477 17.03865,-0.9616 25.39816,-0.00809c0.3495,-0.22773 0.81287,-0.37869 1.4272,-0.37869c1.13553,0 1.75529,0.51577 2.09355,1.07878c0.59208,0.37757 1.15461,1.06888 1.01542,2.32156c-0.15421,1.38788 -0.99751,1.9144 -1.71197,2.1088z" fill="#f8f8f8" stroke-width="0.5"/><path d="M251.15206,225.92601c1.51743,1.77033 -0.03152,3.30479 -0.247,3.5034c0.94993,2.99879 -1.9443,6.21085 -5.08164,7.18746c0,0.20406 0,0.40812 0,0.61218c0,0 0,2.5 -2.5,2.5c-1.98416,0 -2.39356,-1.57476 -2.47804,-2.22461c-2.17084,0.03112 -3.97386,-1.22968 -4.07967,-4.64522c-0.15223,-4.914 5.34816,-5.21544 8.59571,-5.26667c0.00491,-0.00008 0.00982,-0.00016 0.01474,-0.00025l2.25077,-1.93745c0,0 1.89814,-1.62698 3.52512,0.27116z" fill="#f8f8f8" stroke-width="0.5"/><path d="M243.07541,137.57086c0.2218,0.3943 0.38808,0.8122 0.51902,1.24438c0.41134,1.04716 0.63723,2.18751 0.63723,3.38062c1.32426,7.31759 -6.50925,16.70171 -14.49551,12.70858c-2.77928,-1.38964 -4.18828,-4.80849 -5.17091,-7.75636c-0.0451,-0.13531 0.55109,-2.69433 1.16834,-5.14265c0.03242,-1.60551 0.4739,-3.11061 1.22448,-4.41535c1.59661,-2.77543 4.59187,-4.64422 8.0236,-4.64422c0.46433,0 0.92066,0.03421 1.36662,0.10025c-0.23544,-0.12568 -0.46892,-0.25466 -0.70027,-0.38686c-0.36542,-0.20881 -0.06718,-0.8912 -0.33222,-1.21814c-3.00495,-3.7068 -2.77452,-9.39053 -0.95466,-13.78406c0.3441,-0.83072 0.79099,-3.0243 1.519,-3.44031l3.24633,-1.85505c0.38891,-0.4863 0.95562,-0.82421 1.60163,-0.91522l3.12384,-1.78505c2.55289,1.45879 5.93989,2.57852 8.04182,4.67603c0.99244,0.99035 1.69839,2.19868 1.89481,3.76359c0.13644,1.08708 -0.24696,8.43755 -0.51709,9.30763c-0.89884,2.89518 -8.94713,8.54226 -11.08271,7.95983c-0.50504,-0.13774 -1.00704,-0.29007 -1.50487,-0.45652c0.62734,0.49181 1.18955,1.0629 1.67154,1.6982c0.27569,0.28477 0.51841,0.60229 0.72,0.96067z" fill="#acf700" stroke-width="0.5"/><path d="M272.68026,152.34955c3.89613,2.22636 6.59884,2.79456 8.05174,4.69348c0.83371,1.08965 1.25589,2.61747 1.25589,5.14821c0,3.31313 -3.31385,10.02421 -6.35429,11.04541c-0.21871,0.07346 -4.13222,0.27551 -5.35139,0.2973c-1.32057,0.0236 -2.85729,0.95243 -3.95624,0.21979c-1.71437,-1.14291 -2.26674,-3.44162 -3.42874,-5.14311c-0.55313,-0.80994 -1.58897,-0.68881 -1.74217,-2.61325c-0.07716,-0.96929 1.84156,-8.11432 3.5534,-9.09252z" fill="#acf700" stroke-width="0.5"/><path d="M198.0121,172.13298c1.33766,-2.34091 1.79705,-5.56605 3.66433,-7.37375c0.28477,-0.27569 0.60229,-0.51841 0.96067,-0.72c7.79376,-4.38407 26.48037,2.25276 20.65993,13.89365c-1.38964,2.77928 -4.80849,4.18828 -7.75636,5.17091c-1.99833,0.66611 -3.97413,-1.7012 -6.08046,-1.72081c-1.81887,-0.01693 -5.98166,0.31629 -6.8928,-1.27821z" fill="#acf700" stroke-width="0.5"/><path d="M262.32822,131.66754c7.44877,5.06065 8.82053,24.76784 -3.50773,24.76784c-3.10733,0 -5.89654,-2.42779 -8.09375,-4.625c-1.70113,-1.70113 -0.70987,-5.98375 -1.75965,-8.08331c-0.67675,-1.28541 -1.05977,-2.74956 -1.05977,-4.30317c0,-5.10863 4.14137,-9.25 9.25,-9.25c0.82228,0 1.61949,0.10729 2.37842,0.30864c0.98635,0.21228 1.93362,0.60149 2.79249,1.185z" fill="#acf700" stroke-width="0.5"/></g></g></g></svg>